<svg width="64" height="64" viewBox="0 0 64 64" fill="none" xmlns="http://www.w3.org/2000/svg">
<path d="M11.9125 29.1243C14.022 30.6225 15.0235 33.04 14.5912 35.5911C14.2367 37.6859 14.679 39.2205 16.0252 40.5667C17.3721 41.9136 18.9068 42.3558 21.0007 42.0006C21.3921 41.9344 21.7805 41.9017 22.1627 41.9017C24.2722 41.9017 26.1993 42.8934 27.4677 44.6794C28.698 46.4114 30.0957 47.1838 32.0001 47.1838C33.9045 47.1838 35.3023 46.4114 36.5325 44.6794C38.0307 42.5699 40.448 41.5685 42.9993 42.0008C45.0936 42.3551 46.6286 41.913 47.9751 40.5666C49.3217 39.2199 49.7641 37.6854 49.409 35.5913C48.9767 33.04 49.9782 30.6225 52.0877 29.1241C53.8197 27.894 54.5921 26.4961 54.5921 24.5919C54.5921 22.6876 53.8197 21.2897 52.0877 20.0595C49.9782 18.5612 48.9768 16.1436 49.4091 13.5926C49.7636 11.4979 49.3213 9.96325 47.975 8.617C46.6281 7.27025 45.0935 6.82788 42.9995 7.183C40.4472 7.61525 38.0307 6.61375 36.5325 4.50425C35.3023 2.77238 33.9046 2 32.0001 2C30.0956 2 28.698 2.77237 27.4677 4.50437C25.9696 6.61387 23.5522 7.6155 21.0008 7.183C18.9062 6.82863 17.3715 7.27075 16.0253 8.61712C14.6786 9.96375 14.2363 11.4983 14.5912 13.5926C15.0236 16.1436 14.0221 18.5613 11.9125 20.0596C10.1806 21.2898 9.4082 22.6875 9.4082 24.592C9.4082 26.4965 10.1806 27.894 11.9125 29.1243ZM32.0001 11.1351C39.4201 11.1351 45.4567 17.1718 45.4567 24.5919C45.4567 32.012 39.4201 38.0486 32.0001 38.0486C24.5801 38.0486 18.5435 32.012 18.5435 24.5919C18.5435 17.1718 24.5801 11.1351 32.0001 11.1351ZM24.7968 22.8231C24.7968 20.8201 26.1888 19.7212 27.3807 19.3889C27.6802 19.3054 28.0068 19.2574 28.3456 19.2574C29.4261 19.2574 30.6295 19.7458 31.4653 21.1283C31.5785 21.3155 31.7813 21.4299 32.0001 21.4299C32.2188 21.4299 32.4217 21.3154 32.5348 21.1283C33.6328 19.3124 35.3647 19.039 36.6193 19.3888C37.8113 19.7211 39.2032 20.8199 39.2032 22.823C39.2032 25.1238 36.8668 27.3283 34.6072 29.4601C33.6517 30.3616 32.7391 31.2229 32.0001 32.0886C31.2611 31.2229 30.3483 30.3616 29.393 29.4601C27.1335 27.3283 24.7968 25.1239 24.7968 22.8231ZM45.1626 43.314L51.4968 56.6874L44.9184 54.6406C44.6297 54.5506 44.3192 54.68 44.1791 54.9474L40.9831 61.0505L35.9793 47.1007C36.542 46.6525 37.0636 46.0901 37.5515 45.4031C38.7652 43.6943 40.7235 42.8829 42.7907 43.2331C43.6448 43.3776 44.4308 43.4037 45.1626 43.314ZM28.0687 47.138L23.0913 61.073L19.887 54.9741C19.7467 54.7069 19.4352 54.5785 19.1472 54.6684L12.5717 56.7239L18.8975 43.3219C19.6123 43.4028 20.3787 43.3739 21.2093 43.2329C23.2762 42.8826 25.2346 43.6939 26.4485 45.403C26.9502 46.1094 27.4877 46.6839 28.0687 47.138Z" fill="url(#paint0_linear_3538_679)"/>
<defs>
<linearGradient id="paint0_linear_3538_679" x1="11.1306" y1="55.2828" x2="52.8856" y2="13.5278" gradientUnits="userSpaceOnUse">
<stop stop-color="#F8B517"/>
<stop offset="1" stop-color="#FFF4E5"/>
</linearGradient>
</defs>
</svg>
