<svg width="64" height="64" viewBox="0 0 64 64" fill="none" xmlns="http://www.w3.org/2000/svg">
<path d="M17.4585 60.4284L8.84326 55.4543C18.4144 44.2351 25.2116 32.226 32.3559 19.5305L36.8131 22.1039C29.3906 34.639 22.3889 46.5299 17.4585 60.4284ZM9.69239 59.9696L13.1236 61.9508L16.1779 61.1324L8.87401 56.9154L9.69239 59.9696ZM32.218 17.3269C32.14 17.4621 32.1195 17.6208 32.1605 17.7736C32.2015 17.9265 32.2985 18.0539 32.4338 18.1319L37.9854 21.3371C38.2665 21.4995 38.628 21.4029 38.7904 21.1214L39.2629 20.3029L32.6905 16.5083L32.2179 17.3268L32.218 17.3269ZM32.0653 14.704L40.9968 19.8606C41.804 20.3268 42.6634 20.4178 43.5504 20.1314C44.6528 19.7756 45.5943 19.7563 46.6043 20.0805L49.9599 14.2684C49.1741 13.5558 48.72 12.7308 48.477 11.5981C48.2815 10.6868 47.773 9.98839 46.9656 9.52226L36.2574 3.33976C33.1133 1.52451 30.3259 1.55589 27.7368 3.43601C25.8933 4.77451 24.3368 6.88701 22.9373 9.14976C25.1976 8.11576 27.8691 7.20339 29.9589 8.41001L32.5143 9.88539C32.8133 10.058 32.9156 10.4401 32.743 10.7391L31.5545 12.7976C31.3689 13.1191 31.3199 13.4951 31.4166 13.8561C31.5133 14.2171 31.7436 14.5183 32.0651 14.7039L32.0653 14.704ZM47.0398 22.0469C47.0659 22.1441 47.1276 22.225 47.2139 22.2748L50.1219 23.9536C50.5256 24.1868 51.044 24.0478 51.2771 23.644L55.3825 16.5334C55.6156 16.1296 55.4768 15.6114 55.0729 15.3781L52.1649 13.6991C52.1059 13.6651 52.0416 13.649 51.978 13.649C51.8483 13.649 51.7219 13.7163 51.6525 13.8365L47.0765 21.7625C47.0269 21.8486 47.0138 21.9496 47.0398 22.0469Z" fill="url(#paint0_linear_3538_697)"/>
<defs>
<linearGradient id="paint0_linear_3538_697" x1="32.1694" y1="61.9506" x2="32.1694" y2="2.00177" gradientUnits="userSpaceOnUse">
<stop stop-color="#F8B517"/>
<stop offset="1" stop-color="#FFF4E5"/>
</linearGradient>
</defs>
</svg>
