<svg width="64" height="64" viewBox="0 0 64 64" fill="none" xmlns="http://www.w3.org/2000/svg">
<path fill-rule="evenodd" clip-rule="evenodd" d="M50.6684 23.9375H48.0133V22.1852C48.0133 21.4534 48.6084 20.8577 49.3408 20.8577C50.0732 20.8577 50.6683 21.4535 50.6683 22.1852V23.9375H50.6684ZM46.5135 23.9375V21.5697C46.5135 20.7825 45.8733 20.1429 45.086 20.1429C44.2988 20.1429 43.6597 20.7825 43.6597 21.5697V24.6429C44.171 24.2044 44.836 23.9375 45.5619 23.9375H46.5135ZM39.5584 22.0642V26.177C39.5584 26.8944 40.1409 27.4775 40.8583 27.4775C41.5757 27.4775 42.1599 26.8944 42.1599 26.177V22.0642C42.1599 21.3469 41.5757 20.7632 40.8583 20.7632C40.1409 20.7632 39.5584 21.3469 39.5584 22.0642ZM36.952 21.874C36.343 21.874 35.8474 22.3697 35.8474 22.9792V26.4054C35.8474 27.0149 36.3432 27.5106 36.952 27.5106C37.5609 27.5106 38.0585 27.0149 38.0585 26.4054V22.9792C38.0585 22.3696 37.5622 21.874 36.952 21.874ZM38.3229 4.16774C38.3229 3.43587 37.7284 2.84024 36.996 2.84024C36.2637 2.84024 35.6685 3.43599 35.6685 4.16774V5.92049H38.323L38.3229 4.16774ZM34.1687 5.92049V3.55212C34.1687 2.76549 33.529 2.12524 32.7417 2.12524C31.9543 2.12524 31.3153 2.76549 31.3153 3.55212V6.62587C31.8273 6.18674 32.4917 5.92049 33.2175 5.92049H34.1687ZM28.5145 9.45974C29.2319 9.45974 29.815 8.87674 29.815 8.15937V4.04662C29.815 3.32924 29.2314 2.74612 28.5145 2.74612C27.7977 2.74612 27.214 3.32912 27.214 4.04662V8.15937C27.214 8.87674 27.7972 9.45974 28.5145 9.45974ZM24.6084 9.49287C25.2179 9.49287 25.7143 8.99712 25.7143 8.38762V4.96149C25.7143 4.35199 25.218 3.85624 24.6084 3.85624C23.9988 3.85624 23.5032 4.35199 23.5032 4.96149V8.38762C23.5032 8.99712 23.9989 9.49287 24.6084 9.49287ZM25.4264 23.3689L25.3945 25.4885H34.347V22.9791C34.347 21.5426 35.5162 20.374 36.9522 20.374C37.3292 20.374 37.687 20.4559 38.011 20.601C38.3393 20.0915 38.6598 19.6355 38.9718 19.1927C40.156 17.5129 41.0908 16.1865 41.4757 13.1815C41.7257 11.2384 41.5233 9.59574 40.9059 8.55499C40.4535 7.79124 39.6573 7.42024 38.4707 7.42024H33.2177C32.431 7.42024 31.7908 8.06049 31.7908 8.84712C31.7908 9.63374 32.431 10.274 33.2177 10.274H35.9408C36.6197 10.274 37.0473 10.5005 37.2135 10.9475C37.3285 11.2595 37.3322 11.7467 36.6919 12.2974C36.5834 12.3907 36.4709 12.4859 36.3547 12.5846C34.9855 13.7424 33.2822 15.1831 32.8087 18.099C32.7424 18.508 32.3575 18.7851 31.9485 18.7194C31.5395 18.6531 31.2619 18.2676 31.3282 17.8586C31.8419 14.6951 33.5724 12.9954 34.9922 11.7739H33.2177C32.04 11.7739 31.0239 11.0745 30.5595 10.0699C30.0482 10.6174 29.3205 10.9601 28.5147 10.9601C27.7419 10.9601 27.0408 10.6451 26.5335 10.1367C26.0565 10.6614 25.3717 10.9932 24.6085 10.9932C24.2622 10.9932 23.9322 10.9234 23.6297 10.8005C22.9243 17.5485 23.8145 19.0302 24.5374 20.2331C24.9862 20.98 25.4505 21.7522 25.4264 23.3689ZM25.027 31.1854C25.027 30.4535 24.4319 29.8577 23.6995 29.8577C22.9672 29.8577 22.372 30.4535 22.372 31.1854V32.9381H25.027V31.1854ZM20.8722 32.9381V30.5697C20.8722 29.7825 20.2319 29.1422 19.4452 29.1422C18.6584 29.1422 18.0189 29.7825 18.0189 30.5697V33.6435C18.5309 33.2037 19.1953 32.9381 19.921 32.9381H20.8722ZM15.218 36.4774C15.9354 36.4774 16.5185 35.8937 16.5185 35.1764V31.0642C16.5185 30.3469 15.9354 29.7632 15.218 29.7632C14.5007 29.7632 13.917 30.3469 13.917 31.0642V35.1764C13.917 35.8937 14.5007 36.4774 15.218 36.4774ZM11.3119 36.5099C11.9214 36.5099 12.4172 36.0147 12.4172 35.4051V31.979C12.4172 31.3695 11.9214 30.8737 11.3119 30.8737C10.7024 30.8737 10.2065 31.3695 10.2065 31.979V35.4051C10.2065 36.0147 10.7023 36.5099 11.3119 36.5099ZM12.1299 50.3865L12.098 52.505H22.796C22.8809 51.419 23.1695 50.4197 23.6899 49.3964C24.3633 48.0712 25.0608 47.0829 25.6758 46.21C26.8594 44.5312 27.7948 43.2037 28.1797 40.1986C28.429 38.2561 28.226 36.6124 27.6093 35.5726C27.1563 34.8089 26.36 34.4372 25.1747 34.4372H19.9212C19.1345 34.4372 18.4942 35.0775 18.4942 35.8647C18.4942 36.652 19.1344 37.2911 19.9212 37.2911H22.6443C23.3225 37.2911 23.7508 37.5176 23.9164 37.9651C24.032 38.276 24.0357 38.7639 23.3954 39.315C23.2864 39.4077 23.1738 39.5035 23.0575 39.6011C21.689 40.76 19.9857 42.1996 19.5122 45.1161C19.4459 45.5264 19.0604 45.804 18.652 45.7377C18.243 45.6696 17.9654 45.2847 18.0317 44.8764C18.5454 41.7124 20.2753 40.0125 21.6957 38.7916H19.9212C18.7435 38.7916 17.7274 38.0922 17.263 37.0876C16.7517 37.6351 16.024 37.9772 15.2182 37.9772C14.4454 37.9772 13.7443 37.6622 13.237 37.155C12.76 37.6785 12.0752 38.0097 11.312 38.0097C10.9657 38.0097 10.6362 37.9411 10.3333 37.8176C9.62791 44.5662 10.5182 46.0474 11.241 47.2496C11.6898 47.9971 12.1542 48.7699 12.13 50.3866L12.1299 50.3865ZM22.9232 54.0047H11.86C11.2703 54.0047 10.7909 54.4847 10.7909 55.0751V61.8749H23.9923V55.0751C23.9923 54.4849 23.5129 54.0047 22.9232 54.0047ZM34.6084 27.5351C34.5247 27.3622 34.4597 27.1797 34.4157 26.9882H25.1565C24.5668 26.9882 24.0874 27.4677 24.0874 28.0569V28.3851C25.4632 28.5749 26.5275 29.7579 26.5275 31.1854V33.0941C27.8033 33.4104 28.5129 34.156 28.8995 34.8071C29.6862 36.1335 29.959 38.1164 29.6675 40.3901C29.2357 43.7639 28.102 45.3726 26.9017 47.0736C26.2873 47.9464 25.6518 48.8475 25.0265 50.0762C24.5555 51.0026 24.3182 51.9025 24.2773 52.8946C25.0055 53.35 25.4928 54.1554 25.4928 55.075V61.8747H34.9308V46.0749C34.9308 45.1184 35.4572 44.2847 36.2337 43.842L36.271 41.3634C36.2885 40.175 35.9982 39.6925 35.5958 39.0221C34.717 37.5609 33.6244 35.7424 34.6085 27.535L34.6084 27.5351ZM48.5633 45.0052H37.5008C36.911 45.0052 36.431 45.4847 36.431 46.075V61.8749H49.633V46.075C49.633 45.4847 49.1535 45.0052 48.5633 45.0052ZM53.2494 26.5726C52.797 25.8089 52.0008 25.4379 50.8142 25.4379H45.5618C44.7745 25.4379 44.1348 26.0775 44.1348 26.8642C44.1348 27.651 44.7744 28.2911 45.5618 28.2911H48.2844C48.9633 28.2911 49.3909 28.5182 49.5572 28.9651C49.6722 29.2765 49.6758 29.7639 49.0362 30.3144C48.9272 30.4077 48.8145 30.5035 48.6983 30.6017C47.3298 31.7594 45.6258 33.2001 45.1535 36.1161C45.086 36.5264 44.7005 36.804 44.2923 36.7377C43.8833 36.6702 43.6055 36.2854 43.6724 35.8764C44.1857 32.7122 45.9162 31.0131 47.3358 29.7916H45.5619C44.3843 29.7916 43.3682 29.0922 42.9032 28.0876C42.3924 28.6345 41.6648 28.9779 40.8583 28.9779C40.0862 28.9779 39.3844 28.6629 38.8772 28.1551C38.4008 28.6791 37.7159 29.0105 36.9522 29.0105C36.6058 29.0105 36.2758 28.9412 35.9734 28.8184C35.2687 35.5662 36.1583 37.048 36.8812 38.2504C37.3312 38.9979 37.7949 39.7706 37.7708 41.3867L37.7383 43.5051H48.4375C48.5224 42.4191 48.8098 41.4192 49.3308 40.3965C50.0048 39.0714 50.701 38.0829 51.316 37.2101C52.5008 35.5314 53.4357 34.2045 53.8205 31.1994C54.0699 29.2562 53.8669 27.613 53.2495 26.5729L53.2494 26.5726Z" fill="url(#paint0_linear_3538_667)"/>
<defs>
<linearGradient id="paint0_linear_3538_667" x1="31.9999" y1="61.875" x2="31.9999" y2="2.12524" gradientUnits="userSpaceOnUse">
<stop stop-color="#F8B517"/>
<stop offset="1" stop-color="#FFF4E5"/>
</linearGradient>
</defs>
</svg>
