<svg width="64" height="64" viewBox="0 0 64 64" fill="none" xmlns="http://www.w3.org/2000/svg">
<path fill-rule="evenodd" clip-rule="evenodd" d="M55.6224 30.8151V50.8439C55.6224 51.3271 55.2307 51.7189 54.7474 51.7189H50.2322C49.7489 51.7189 49.3572 51.3271 49.3572 50.8439C49.3572 50.3606 49.7489 49.9689 50.2322 49.9689H53.8724V30.8151C53.8724 30.3319 54.2642 29.9401 54.7474 29.9401C55.2307 29.9401 55.6224 30.3319 55.6224 30.8151ZM46.4497 15.4298C45.4238 13.7311 44.9362 12.0203 44.9362 10.0288C44.9362 7.36826 45.9707 5.20314 47.6261 3.66651C47.2398 3.13676 46.6146 2.79126 45.9113 2.79126H27.1232H8.33506C7.16681 2.79126 6.21394 3.74413 6.21394 4.91238V6.06613H40.8876C43.0211 6.06613 44.7576 7.80263 44.7576 9.93613V56.1848H45.9113C47.0797 56.1848 48.0324 55.2319 48.0324 54.0635V17.7283C47.5247 16.9585 46.9212 16.2106 46.4496 15.4296L46.4497 15.4298ZM57.7237 22.8716H51.7713C51.2881 22.8716 50.8963 23.2634 50.8963 23.7466C50.8963 24.2299 51.2881 24.6216 51.7713 24.6216H57.7237C58.2069 24.6216 58.5987 24.2299 58.5987 23.7466C58.5987 23.2634 58.2069 22.8716 57.7237 22.8716ZM57.1808 25.5535H52.3141C51.8308 25.5535 51.4391 25.9453 51.4391 26.4285C51.4391 26.9118 51.8308 27.3035 52.3141 27.3035H53.8724V27.8071C53.8724 28.2904 54.2642 28.6821 54.7474 28.6821C55.2307 28.6821 55.6224 28.2904 55.6224 27.8071V27.3035H57.1808C57.6641 27.3035 58.0558 26.9118 58.0558 26.4285C58.0558 25.9453 57.6641 25.5535 57.1808 25.5535ZM54.7474 2.80613C50.7162 2.80613 46.6849 5.21363 46.6849 10.0288C46.6849 15.2768 50.7162 16.3738 50.7162 20.2788V20.5206C50.7162 21.3009 51.3547 21.9395 52.1351 21.9395H53.8726V16.1494C52.8577 15.7885 52.1289 14.8184 52.1289 13.6814C52.1289 12.2378 53.3038 11.0635 54.7474 11.0635C56.1911 11.0635 57.3647 12.2378 57.3647 13.6814C57.3647 14.8183 56.6368 15.7883 55.6224 16.1493V21.9395H57.3598C58.1402 21.9395 58.7787 21.301 58.7787 20.5206V20.2788C58.7787 16.3736 62.8099 15.2768 62.8099 10.0288C62.8099 5.21363 58.7787 2.80613 54.7474 2.80613ZM55.6151 13.6816C55.6151 13.2026 55.2264 12.814 54.7474 12.814C54.2684 12.814 53.8786 13.2026 53.8786 13.6816C53.8786 14.1606 54.2672 14.5499 54.7474 14.5499C55.2277 14.5499 55.6151 14.1613 55.6151 13.6816ZM25.8516 42.3601C26.5222 42.3601 27.0693 41.8149 27.0693 41.1436C27.0693 40.4724 26.5222 39.9279 25.8516 39.9279C25.1809 39.9279 24.6351 40.4738 24.6351 41.1436C24.6351 41.8135 25.1816 42.3601 25.8516 42.3601ZM18.3479 37.2239C19.0179 37.2239 19.5638 36.6786 19.5638 36.0074C19.5638 35.3361 19.0179 34.7915 18.3479 34.7915C17.6779 34.7915 17.1316 35.3374 17.1316 36.0074C17.1316 36.6774 17.6762 37.2239 18.3479 37.2239ZM33.3564 33.5914C34.0276 33.5914 34.5729 33.0455 34.5729 32.3749C34.5729 31.7043 34.0277 31.1579 33.3564 31.1579C32.6852 31.1579 32.1399 31.7038 32.1399 32.3749C32.1399 33.046 32.6852 33.5914 33.3564 33.5914ZM43.0088 9.93626V59.0873C43.0088 60.2555 42.0561 61.2085 40.8877 61.2085H22.0994H3.31131C2.14294 61.2085 1.19019 60.2556 1.19019 59.0873V9.93613C1.19019 8.76788 2.14306 7.81501 3.31144 7.81501H22.0994H40.8876C42.0558 7.81501 43.0087 8.76788 43.0087 9.93613L43.0088 9.93626ZM16.5456 22.9563V28.8355C20.1354 28.0519 22.8234 24.8554 22.8234 21.0305C22.8234 20.4806 22.7678 19.9436 22.6619 19.425L16.5454 22.9564L16.5456 22.9563ZM15.7091 20.5253L21.7541 17.0351C20.5107 14.8863 18.2953 13.3704 15.7091 13.0886V20.5253ZM15.3813 36.0075C15.3813 36.4764 15.4907 36.9199 15.6849 37.3143L12.3047 40.5013C11.8731 40.2558 11.3741 40.1153 10.8427 40.1153C9.20806 40.1153 7.87656 41.4461 7.87656 43.0814C7.87656 44.7166 9.20806 46.0488 10.8427 46.0488C12.4773 46.0488 13.8088 44.7178 13.8088 43.0814C13.8088 42.6128 13.6994 42.1693 13.5052 41.7748L16.8861 38.588C17.3177 38.8333 17.8167 38.9735 18.3481 38.9735C19.0436 38.9735 19.6841 38.7326 20.1907 38.33L23.0179 40.2653C22.9316 40.543 22.8849 40.838 22.8849 41.1436C22.8849 42.78 24.2164 44.1098 25.8517 44.1098C27.4869 44.1098 28.8191 42.78 28.8191 41.1436C28.8191 40.5616 28.6502 40.0181 28.3589 39.5595L32.1783 35.0973C32.5396 35.2543 32.9379 35.3415 33.3566 35.3415C34.9929 35.3415 36.3227 34.01 36.3227 32.3748C36.3227 30.7395 34.9929 29.4074 33.3566 29.4074C31.7202 29.4074 30.3904 30.7389 30.3904 32.3748C30.3904 32.9565 30.5588 33.4996 30.8493 33.9583L27.0298 38.4218C26.6684 38.2648 26.2701 38.1775 25.8517 38.1775C25.1556 38.1775 24.5144 38.419 24.0077 38.8224L21.1809 36.8875C21.2676 36.6094 21.3142 36.3138 21.3142 36.0074C21.3142 34.3728 19.9827 33.0413 18.3481 33.0413C16.7134 33.0413 15.3813 34.3728 15.3813 36.0074V36.0075ZM6.84456 21.0303C6.84456 25.147 9.95831 28.536 13.9591 28.9718V13.0888C9.95831 13.5246 6.84456 16.9136 6.84456 21.0303ZM38.2293 55.5623C38.2293 55.079 37.8376 54.6873 37.3543 54.6873H35.4474V38.099H31.2646V54.6873H27.9429V46.357H23.7601V54.6873H20.4384V41.7436H16.2557V54.6873H12.9341V49.002H8.75119V54.6873H6.84431C6.36106 54.6873 5.96931 55.079 5.96931 55.5623C5.96931 56.0455 6.36106 56.4373 6.84431 56.4373H37.3542C37.8374 56.4373 38.2292 56.0455 38.2292 55.5623H38.2293ZM38.2293 25.4173C38.2293 24.934 37.8376 24.5423 37.3543 24.5423H32.5259C32.0427 24.5423 31.6509 24.934 31.6509 25.4173C31.6509 25.9005 32.0427 26.2923 32.5259 26.2923H37.3543C37.8376 26.2923 38.2293 25.9005 38.2293 25.4173ZM38.2293 21.483C38.2293 20.9998 37.8376 20.608 37.3543 20.608H27.6974C27.2142 20.608 26.8224 20.9998 26.8224 21.483C26.8224 21.9663 27.2142 22.358 27.6974 22.358H37.3543C37.8376 22.358 38.2293 21.9663 38.2293 21.483ZM38.2293 17.5488C38.2293 17.0655 37.8376 16.6738 37.3543 16.6738H27.6974C27.2142 16.6738 26.8224 17.0655 26.8224 17.5488C26.8224 18.032 27.2142 18.4238 27.6974 18.4238H37.3543C37.8376 18.4238 38.2293 18.032 38.2293 17.5488ZM38.2293 13.6145C38.2293 13.1313 37.8376 12.7395 37.3543 12.7395H24.1804C23.6972 12.7395 23.3054 13.1313 23.3054 13.6145C23.3054 14.0978 23.6972 14.4895 24.1804 14.4895H37.3543C37.8376 14.4895 38.2293 14.0978 38.2293 13.6145ZM10.8426 41.8648C10.1726 41.8648 9.62669 42.4113 9.62669 43.0813C9.62669 43.7513 10.1726 44.2989 10.8426 44.2989C11.5126 44.2989 12.0591 43.7524 12.0591 43.0813C12.0591 42.4101 11.5138 41.8648 10.8426 41.8648Z" fill="url(#paint0_linear_3538_691)"/>
<defs>
<linearGradient id="paint0_linear_3538_691" x1="32.0001" y1="61.2085" x2="32.0001" y2="2.79126" gradientUnits="userSpaceOnUse">
<stop stop-color="#F8B517"/>
<stop offset="1" stop-color="#FFF4E5"/>
</linearGradient>
</defs>
</svg>
