<svg width="62" height="62" viewBox="0 0 62 62" fill="none" xmlns="http://www.w3.org/2000/svg">
<path d="M23.6321 23.858H7.5071C7.87885 19.7314 11.3462 16.4975 15.5696 16.4975C19.793 16.4975 23.2604 19.7315 23.6321 23.858ZM15.5696 16.4714C17.6934 16.4714 19.4254 14.7393 19.4254 12.6157C19.4254 10.492 17.6934 8.7599 15.5696 8.7599C13.4459 8.7599 11.7139 10.492 11.7139 12.6157C11.7139 14.7393 13.446 16.4714 15.5696 16.4714ZM21.9374 35.7663H40.0624C39.6445 31.1279 35.747 27.4928 30.9999 27.4928C26.2527 27.4928 22.3552 31.1278 21.9374 35.7663ZM35.3339 23.1295C35.3339 20.7424 33.387 18.7955 30.9999 18.7955C28.6127 18.7955 26.6659 20.7425 26.6659 23.1295C26.6659 25.5165 28.6129 27.4635 30.9999 27.4635C33.3869 27.4635 35.3339 25.5165 35.3339 23.1295ZM54.4926 23.858C54.1209 19.7314 50.6535 16.4975 46.4301 16.4975C42.2067 16.4975 38.7394 19.7315 38.3676 23.858H54.4926ZM46.4301 16.4714C48.5539 16.4714 50.2859 14.7393 50.2859 12.6157C50.2859 10.492 48.5539 8.7599 46.4301 8.7599C44.3064 8.7599 42.5744 10.492 42.5744 12.6157C42.5744 14.7393 44.3065 16.4714 46.4301 16.4714ZM30.5252 15.3673C30.658 15.4944 30.8289 15.558 30.9999 15.558C31.1709 15.558 31.3419 15.4944 31.4745 15.3673C35.3415 11.6607 39.0624 7.95403 39.0624 4.24753C39.0624 2.1179 37.2564 0.389404 35.0311 0.389404C33.0155 0.389404 31.7926 1.16578 30.9999 2.58415C30.2071 1.16578 28.9842 0.389404 26.9686 0.389404C24.7434 0.389404 22.9374 2.11778 22.9374 4.24753C22.9374 7.95415 26.6582 11.6608 30.5252 15.3673ZM17.3435 55.137H28.0145C28.0249 55.137 28.0352 55.1374 28.0456 55.1374C29.4545 38.1865 21.8182 44.7778 12.5592 35.5188C11.0441 33.8845 8.78248 35.3743 9.61585 37.161C9.89598 37.7617 10.4139 38.4308 11.043 39.0915C12.6862 40.8172 15.0195 42.36 16.1847 42.7275C16.5954 42.8573 16.8661 43.3463 16.7364 43.7569C16.6066 44.1675 16.1704 44.4765 15.5895 44.293C14.2431 43.8684 11.6049 42.1463 9.7926 40.2432C6.27648 36.5013 4.65198 29.8448 3.49423 25.5243C2.83348 23.0587 0.710352 22.1608 0.387727 24.5328C0.162477 26.1902 1.7756 32.7868 2.88623 36.3997C3.86173 39.573 4.66835 41.6622 6.9786 44.0768C8.63198 45.8049 10.6979 47.4248 12.3344 48.8767C14.4617 50.7638 16.3201 52.654 17.2151 55.1399C17.2577 55.1383 17.3004 55.1372 17.3434 55.1372L17.3435 55.137ZM28.0145 56.7918H17.3434C16.4622 56.7918 15.7414 57.5128 15.7414 58.3939V61.6103H29.6165V58.3939C29.6165 57.5128 28.8955 56.7919 28.0145 56.7919V56.7918ZM44.6564 56.7918H33.9852C33.1042 56.7918 32.3832 57.5128 32.3832 58.3939V61.6103H46.2585V58.3939C46.2585 57.5128 45.5375 56.7918 44.6564 56.7918ZM61.6121 24.5329C61.2895 22.1608 59.1664 23.0587 58.5056 25.5244C57.3479 29.8449 55.7232 36.5014 52.2071 40.2433C50.3949 42.1464 47.7566 43.8685 46.4102 44.2932C45.8294 44.4767 45.3931 44.1678 45.2634 43.757C45.1336 43.3464 45.4045 42.8574 45.815 42.7277C46.9802 42.3602 49.3135 40.8173 50.9567 39.0917C51.5858 38.4309 52.1037 37.7618 52.3839 37.1612C53.2172 35.3744 50.9556 33.8847 49.4405 35.5189C40.1815 44.7779 32.5452 38.1865 33.9541 55.1375C33.9645 55.1375 33.9748 55.1372 33.9852 55.1372H44.6562C44.6992 55.1372 44.7419 55.1382 44.7845 55.1399C45.6795 52.6542 47.538 50.7638 49.6652 48.8767C51.3018 47.4248 53.3676 45.8049 55.021 44.0768C57.3311 41.6622 58.1377 39.573 59.1134 36.3997C60.2241 32.7868 61.8371 26.1903 61.6119 24.5328L61.6121 24.5329Z" fill="url(#paint0_linear_3538_686)"/>
<defs>
<linearGradient id="paint0_linear_3538_686" x1="9.71698" y1="55.5858" x2="52.283" y2="13.0198" gradientUnits="userSpaceOnUse">
<stop stop-color="#F8B517"/>
<stop offset="1" stop-color="#FFF4E5"/>
</linearGradient>
</defs>
</svg>
